<svg width="1280" height="720" viewBox="0 0 1280 720" xmlns="http://www.w3.org/2000/svg">
  <defs>
    <linearGradient id="wideGradient" x1="0%" y1="0%" x2="100%" y2="100%">
      <stop offset="0%" style="stop-color:#667eea;stop-opacity:1" />
      <stop offset="100%" style="stop-color:#764ba2;stop-opacity:1" />
    </linearGradient>
  </defs>
  <rect width="1280" height="720" fill="url(#wideGradient)"/>
  
  <!-- Header -->
  <rect x="0" y="0" width="1280" height="80" fill="rgba(255,255,255,0.1)"/>
  <text x="64" y="50" font-family="Arial, sans-serif" font-size="24" font-weight="bold" fill="white">TianDev Studio</text>
  
  <!-- Main Content -->
  <g transform="translate(640, 360)">
    <text x="0" y="-100" text-anchor="middle" font-family="Arial, sans-serif" font-size="48" font-weight="bold" fill="white">Professional iOS Apps</text>
    <text x="0" y="-40" text-anchor="middle" font-family="Arial, sans-serif" font-size="24" fill="rgba(255,255,255,0.8)">Discover our collection of innovative mobile applications</text>
    
    <!-- App Icons -->
    <g transform="translate(-200, 20)">
      <rect x="0" y="0" width="80" height="80" rx="16" fill="white" opacity="0.9"/>
      <rect x="20" y="20" width="40" height="40" rx="8" fill="url(#wideGradient)"/>
    </g>
    <g transform="translate(-60, 20)">
      <rect x="0" y="0" width="80" height="80" rx="16" fill="white" opacity="0.9"/>
      <rect x="20" y="20" width="40" height="40" rx="8" fill="url(#wideGradient)"/>
    </g>
    <g transform="translate(80, 20)">
      <rect x="0" y="0" width="80" height="80" rx="16" fill="white" opacity="0.9"/>
      <rect x="20" y="20" width="40" height="40" rx="8" fill="url(#wideGradient)"/>
    </g>
  </g>
  
  <!-- Footer -->
  <rect x="0" y="640" width="1280" height="80" fill="rgba(0,0,0,0.2)"/>
  <text x="640" y="690" text-anchor="middle" font-family="Arial, sans-serif" font-size="16" fill="rgba(255,255,255,0.7)">© 2024 TianDev Studio. All rights reserved.</text>
</svg>