<svg width="720" height="1280" viewBox="0 0 720 1280" xmlns="http://www.w3.org/2000/svg">
  <defs>
    <linearGradient id="narrowGradient" x1="0%" y1="0%" x2="100%" y2="100%">
      <stop offset="0%" style="stop-color:#667eea;stop-opacity:1" />
      <stop offset="100%" style="stop-color:#764ba2;stop-opacity:1" />
    </linearGradient>
  </defs>
  <rect width="720" height="1280" fill="url(#narrowGradient)"/>
  
  <!-- Header -->
  <rect x="0" y="0" width="720" height="120" fill="rgba(255,255,255,0.1)"/>
  <text x="360" y="75" text-anchor="middle" font-family="Arial, sans-serif" font-size="28" font-weight="bold" fill="white">TianDev Studio</text>
  
  <!-- Main Content -->
  <g transform="translate(360, 640)">
    <text x="0" y="-200" text-anchor="middle" font-family="Arial, sans-serif" font-size="36" font-weight="bold" fill="white">Professional</text>
    <text x="0" y="-150" text-anchor="middle" font-family="Arial, sans-serif" font-size="36" font-weight="bold" fill="white">iOS Apps</text>
    <text x="0" y="-80" text-anchor="middle" font-family="Arial, sans-serif" font-size="18" fill="rgba(255,255,255,0.8)">Innovative mobile applications</text>
    <text x="0" y="-50" text-anchor="middle" font-family="Arial, sans-serif" font-size="18" fill="rgba(255,255,255,0.8)">for modern users</text>
    
    <!-- App Grid -->
    <g transform="translate(-120, 20)">
      <rect x="0" y="0" width="60" height="60" rx="12" fill="white" opacity="0.9"/>
      <rect x="15" y="15" width="30" height="30" rx="6" fill="url(#narrowGradient)"/>
    </g>
    <g transform="translate(-20, 20)">
      <rect x="0" y="0" width="60" height="60" rx="12" fill="white" opacity="0.9"/>
      <rect x="15" y="15" width="30" height="30" rx="6" fill="url(#narrowGradient)"/>
    </g>
    <g transform="translate(80, 20)">
      <rect x="0" y="0" width="60" height="60" rx="12" fill="white" opacity="0.9"/>
      <rect x="15" y="15" width="30" height="30" rx="6" fill="url(#narrowGradient)"/>
    </g>
    
    <g transform="translate(-120, 100)">
      <rect x="0" y="0" width="60" height="60" rx="12" fill="white" opacity="0.9"/>
      <rect x="15" y="15" width="30" height="30" rx="6" fill="url(#narrowGradient)"/>
    </g>
    <g transform="translate(-20, 100)">
      <rect x="0" y="0" width="60" height="60" rx="12" fill="white" opacity="0.9"/>
      <rect x="15" y="15" width="30" height="30" rx="6" fill="url(#narrowGradient)"/>
    </g>
    <g transform="translate(80, 100)">
      <rect x="0" y="0" width="60" height="60" rx="12" fill="white" opacity="0.9"/>
      <rect x="15" y="15" width="30" height="30" rx="6" fill="url(#narrowGradient)"/>
    </g>
  </g>
  
  <!-- Footer -->
  <rect x="0" y="1160" width="720" height="120" fill="rgba(0,0,0,0.2)"/>
  <text x="360" y="1230" text-anchor="middle" font-family="Arial, sans-serif" font-size="14" fill="rgba(255,255,255,0.7)">© 2024 TianDev Studio</text>
</svg>