<svg width="120" height="120" viewBox="0 0 120 120" fill="none" xmlns="http://www.w3.org/2000/svg">
  <defs>
    <linearGradient id="aiAppearanceGradient" x1="0%" y1="0%" x2="100%" y2="100%">
      <stop offset="0%" style="stop-color:#FF6B9D;stop-opacity:1" />
      <stop offset="50%" style="stop-color:#C44569;stop-opacity:1" />
      <stop offset="100%" style="stop-color:#F8B500;stop-opacity:1" />
    </linearGradient>
    <linearGradient id="faceGradient" x1="0%" y1="0%" x2="100%" y2="100%">
      <stop offset="0%" style="stop-color:#FFE4E1;stop-opacity:1" />
      <stop offset="100%" style="stop-color:#FFC0CB;stop-opacity:1" />
    </linearGradient>
  </defs>
  
  <!-- Background Circle -->
  <circle cx="60" cy="60" r="55" fill="url(#aiAppearanceGradient)" stroke="#fff" stroke-width="2"/>
  
  <!-- Face Circle -->
  <circle cx="60" cy="55" r="25" fill="url(#faceGradient)" stroke="#FF6B9D" stroke-width="1.5"/>
  
  <!-- Eyes -->
  <circle cx="52" cy="50" r="3" fill="#333"/>
  <circle cx="68" cy="50" r="3" fill="#333"/>
  <circle cx="53" cy="49" r="1" fill="#fff"/>
  <circle cx="69" cy="49" r="1" fill="#fff"/>
  
  <!-- Nose -->
  <path d="M60 55 L58 58 L62 58 Z" fill="#FF9999" opacity="0.6"/>
  
  <!-- Mouth -->
  <path d="M55 62 Q60 67 65 62" stroke="#FF6B9D" stroke-width="2" fill="none" stroke-linecap="round"/>
  
  <!-- AI Sparkles -->
  <g fill="#FFD700" opacity="0.8">
    <path d="M25 25 L27 30 L32 28 L27 33 L25 28 L20 30 L25 25 Z"/>
    <path d="M90 30 L92 35 L97 33 L92 38 L90 33 L85 35 L90 30 Z"/>
    <path d="M95 75 L97 80 L102 78 L97 83 L95 78 L90 80 L95 75 Z"/>
    <path d="M20 80 L22 85 L27 83 L22 88 L20 83 L15 85 L20 80 Z"/>
  </g>
  
  <!-- Beauty Score Display -->
  <rect x="35" y="85" width="50" height="20" rx="10" fill="#fff" stroke="#FF6B9D" stroke-width="1.5"/>
  <text x="60" y="98" text-anchor="middle" font-family="Arial, sans-serif" font-size="12" font-weight="bold" fill="#FF6B9D">AI 95</text>
  
  <!-- Scanning Lines -->
  <g stroke="#00FF88" stroke-width="1" opacity="0.6">
    <line x1="35" y1="45" x2="85" y2="45"/>
    <line x1="35" y1="55" x2="85" y2="55"/>
    <line x1="35" y1="65" x2="85" y2="65"/>
  </g>
</svg>