<svg width="64" height="64" viewBox="0 0 64 64" fill="none" xmlns="http://www.w3.org/2000/svg">
  <defs>
    <linearGradient id="cleanGradient" x1="0%" y1="0%" x2="100%" y2="100%">
      <stop offset="0%" style="stop-color:#10B981;stop-opacity:1" />
      <stop offset="100%" style="stop-color:#059669;stop-opacity:1" />
    </linearGradient>
  </defs>
  
  <!-- Background circle -->
  <circle cx="32" cy="32" r="30" fill="url(#cleanGradient)" stroke="#E5E7EB" stroke-width="2"/>
  
  <!-- Broom handle -->
  <rect x="28" y="12" width="3" height="25" fill="#8B4513" rx="1.5"/>
  
  <!-- Broom bristles -->
  <path d="M22 35 L38 35 L36 45 L24 45 Z" fill="#DAA520"/>
  <path d="M24 35 L26 45 M28 35 L28 45 M30 35 L30 45 M32 35 L32 45 M34 35 L34 45 M36 35 L36 45" stroke="#B8860B" stroke-width="1"/>
  
  <!-- Sparkles/cleaning effect -->
  <circle cx="42" cy="20" r="2" fill="white" opacity="0.8"/>
  <path d="M42 16 L42 24 M38 20 L46 20" stroke="white" stroke-width="1.5" opacity="0.8"/>
  
  <circle cx="20" cy="28" r="1.5" fill="white" opacity="0.7"/>
  <path d="M20 25 L20 31 M17 28 L23 28" stroke="white" stroke-width="1" opacity="0.7"/>
  
  <circle cx="45" cy="40" r="1.5" fill="white" opacity="0.6"/>
  <path d="M45 37 L45 43 M42 40 L48 40" stroke="white" stroke-width="1" opacity="0.6"/>
  
  <!-- Shield for protection -->
  <path d="M32 48 L28 52 L32 56 L36 52 Z" fill="white" opacity="0.9"/>
  <path d="M30 50 L32 52 L34 50" stroke="#10B981" stroke-width="1.5" stroke-linecap="round"/>
</svg>