<svg width="48" height="48" viewBox="0 0 48 48" fill="none" xmlns="http://www.w3.org/2000/svg">
  <defs>
    <linearGradient id="performanceGradient" x1="0%" y1="0%" x2="100%" y2="100%">
      <stop offset="0%" style="stop-color:#F59E0B;stop-opacity:1" />
      <stop offset="100%" style="stop-color:#D97706;stop-opacity:1" />
    </linearGradient>
  </defs>
  
  <!-- Background circle -->
  <circle cx="24" cy="24" r="22" fill="url(#performanceGradient)"/>
  
  <!-- Speedometer -->
  <circle cx="24" cy="26" r="14" fill="none" stroke="white" stroke-width="2"/>
  
  <!-- Speed marks -->
  <g stroke="white" stroke-width="1.5">
    <line x1="24" y1="12" x2="24" y2="16" transform="rotate(0 24 26)"/>
    <line x1="24" y1="12" x2="24" y2="15" transform="rotate(30 24 26)"/>
    <line x1="24" y1="12" x2="24" y2="15" transform="rotate(60 24 26)"/>
    <line x1="24" y1="12" x2="24" y2="16" transform="rotate(90 24 26)"/>
    <line x1="24" y1="12" x2="24" y2="15" transform="rotate(120 24 26)"/>
    <line x1="24" y1="12" x2="24" y2="15" transform="rotate(150 24 26)"/>
    <line x1="24" y1="12" x2="24" y2="16" transform="rotate(180 24 26)"/>
  </g>
  
  <!-- Needle pointing to high performance -->
  <line x1="24" y1="26" x2="32" y2="20" stroke="white" stroke-width="3" stroke-linecap="round"/>
  
  <!-- Center dot -->
  <circle cx="24" cy="26" r="2" fill="white"/>
  
  <!-- Lightning bolt for speed -->
  <path d="M20 8 L16 16 L20 16 L18 22 L22 14 L18 14 Z" fill="white" opacity="0.9"/>
  
  <!-- Performance indicators -->
  <rect x="32" y="34" width="2" height="6" fill="white" opacity="0.8"/>
  <rect x="35" y="32" width="2" height="8" fill="white" opacity="0.8"/>
  <rect x="38" y="30" width="2" height="10" fill="white" opacity="0.8"/>
</svg>