<svg width="80" height="80" viewBox="0 0 80 80" fill="none" xmlns="http://www.w3.org/2000/svg">
  <!-- Background Circle -->
  <circle cx="40" cy="40" r="38" fill="url(#gradient1)" stroke="#667eea" stroke-width="2"/>
  
  <!-- Browser Window -->
  <rect x="15" y="20" width="50" height="35" rx="4" fill="white" opacity="0.95"/>
  
  <!-- Browser Header -->
  <rect x="15" y="20" width="50" height="8" rx="4" fill="#667eea"/>
  
  <!-- Traffic Lights -->
  <circle cx="20" cy="24" r="1.5" fill="#ff5f57"/>
  <circle cx="25" cy="24" r="1.5" fill="#ffbd2e"/>
  <circle cx="30" cy="24" r="1.5" fill="#28ca42"/>
  
  <!-- Address Bar -->
  <rect x="18" y="32" width="44" height="4" rx="2" fill="#f0f0f0"/>
  <rect x="20" y="33.5" width="8" height="1" rx="0.5" fill="#667eea"/>
  
  <!-- Content Area -->
  <rect x="18" y="38" width="44" height="15" rx="1" fill="#f8f9fa"/>
  
  <!-- Content Lines -->
  <rect x="20" y="40" width="20" height="1" rx="0.5" fill="#e0e0e0"/>
  <rect x="20" y="42" width="30" height="1" rx="0.5" fill="#e0e0e0"/>
  <rect x="20" y="44" width="25" height="1" rx="0.5" fill="#e0e0e0"/>
  <rect x="20" y="46" width="35" height="1" rx="0.5" fill="#e0e0e0"/>
  <rect x="20" y="48" width="15" height="1" rx="0.5" fill="#e0e0e0"/>
  <rect x="20" y="50" width="28" height="1" rx="0.5" fill="#e0e0e0"/>
  
  <!-- Shield Icon (Privacy) -->
  <path d="M40 58 C40 58, 35 56, 35 50 C35 46, 37 44, 40 44 C43 44, 45 46, 45 50 C45 56, 40 58, 40 58 Z" fill="#667eea"/>
  <path d="M40 47 L42 49 L38 53" stroke="white" stroke-width="1.5" fill="none" stroke-linecap="round" stroke-linejoin="round"/>
  
  <!-- Ad Block Symbol -->
  <circle cx="25" cy="65" r="6" fill="#ff4757" opacity="0.9"/>
  <rect x="22" y="64" width="6" height="2" rx="1" fill="white"/>
  <text x="25" y="68" font-family="Arial, sans-serif" font-size="6" fill="white" text-anchor="middle" font-weight="bold">AD</text>
  <line x1="20" y1="60" x2="30" y2="70" stroke="#ff4757" stroke-width="2"/>
  
  <!-- Speed Lines -->
  <path d="M55 62 L62 62 M55 65 L60 65 M55 68 L58 68" stroke="#667eea" stroke-width="2" opacity="0.7"/>
  
  <!-- Gradient Definition -->
  <defs>
    <linearGradient id="gradient1" x1="0%" y1="0%" x2="100%" y2="100%">
      <stop offset="0%" style="stop-color:#667eea;stop-opacity:1" />
      <stop offset="100%" style="stop-color:#764ba2;stop-opacity:1" />
    </linearGradient>
  </defs>
</svg>