<svg width="64" height="64" viewBox="0 0 64 64" fill="none" xmlns="http://www.w3.org/2000/svg">
  <defs>
    <linearGradient id="browserGradient" x1="0%" y1="0%" x2="100%" y2="100%">
      <stop offset="0%" style="stop-color:#3B82F6;stop-opacity:1" />
      <stop offset="100%" style="stop-color:#1D4ED8;stop-opacity:1" />
    </linearGradient>
  </defs>
  
  <!-- Background circle -->
  <circle cx="32" cy="32" r="30" fill="url(#browserGradient)" stroke="#E5E7EB" stroke-width="2"/>
  
  <!-- Browser window -->
  <rect x="12" y="16" width="40" height="32" rx="4" fill="white" opacity="0.95"/>
  
  <!-- Browser header -->
  <rect x="12" y="16" width="40" height="8" rx="4" fill="#F3F4F6"/>
  <rect x="12" y="20" width="40" height="4" fill="#E5E7EB"/>
  
  <!-- Traffic lights -->
  <circle cx="18" cy="20" r="1.5" fill="#EF4444"/>
  <circle cx="22" cy="20" r="1.5" fill="#F59E0B"/>
  <circle cx="26" cy="20" r="1.5" fill="#10B981"/>
  
  <!-- Address bar -->
  <rect x="32" y="18" width="16" height="4" rx="2" fill="white" stroke="#D1D5DB" stroke-width="0.5"/>
  
  <!-- Petal/flower design -->
  <g transform="translate(32,32)">
    <!-- Petals -->
    <ellipse cx="0" cy="-8" rx="3" ry="6" fill="#EC4899" opacity="0.8" transform="rotate(0)"/>
    <ellipse cx="0" cy="-8" rx="3" ry="6" fill="#F97316" opacity="0.8" transform="rotate(72)"/>
    <ellipse cx="0" cy="-8" rx="3" ry="6" fill="#EAB308" opacity="0.8" transform="rotate(144)"/>
    <ellipse cx="0" cy="-8" rx="3" ry="6" fill="#22C55E" opacity="0.8" transform="rotate(216)"/>
    <ellipse cx="0" cy="-8" rx="3" ry="6" fill="#3B82F6" opacity="0.8" transform="rotate(288)"/>
    
    <!-- Center -->
    <circle cx="0" cy="0" r="3" fill="#FBBF24"/>
  </g>
  
  <!-- Speed lines -->
  <path d="M8 32 L12 32" stroke="white" stroke-width="2" opacity="0.6"/>
  <path d="M52 32 L56 32" stroke="white" stroke-width="2" opacity="0.6"/>
  <path d="M32 8 L32 12" stroke="white" stroke-width="2" opacity="0.6"/>
</svg>