<?xml version="1.0" encoding="UTF-8"?>
<svg width="128" height="128" viewBox="0 0 128 128" xmlns="http://www.w3.org/2000/svg" fill="none">
  <defs>
    <linearGradient id="g" x1="0" y1="0" x2="128" y2="128" gradientUnits="userSpaceOnUse">
      <stop stop-color="#667eea"/>
      <stop offset="1" stop-color="#764ba2"/>
    </linearGradient>
  </defs>
  <rect x="8" y="8" width="112" height="112" rx="20" fill="url(#g)"/>
  <rect x="26" y="26" width="24" height="24" rx="4" fill="#fff" opacity="0.95"/>
  <rect x="78" y="26" width="24" height="24" rx="4" fill="#fff" opacity="0.95"/>
  <rect x="26" y="78" width="24" height="24" rx="4" fill="#fff" opacity="0.95"/>
  <g fill="#fff" opacity="0.95">
    <rect x="52" y="52" width="8" height="8"/>
    <rect x="64" y="52" width="8" height="8"/>
    <rect x="76" y="52" width="8" height="8"/>
    <rect x="52" y="64" width="8" height="8"/>
    <rect x="64" y="64" width="8" height="8"/>
    <rect x="76" y="64" width="8" height="8"/>
    <rect x="52" y="76" width="8" height="8"/>
    <rect x="64" y="76" width="8" height="8"/>
    <rect x="76" y="76" width="8" height="8"/>
  </g>
  <rect x="78" y="78" width="24" height="24" rx="4" fill="#fff" opacity="0.95"/>
</svg>