<svg width="64" height="64" viewBox="0 0 64 64" fill="none" xmlns="http://www.w3.org/2000/svg">
  <defs>
    <linearGradient id="shadowGradient" x1="0%" y1="0%" x2="100%" y2="100%">
      <stop offset="0%" style="stop-color:#1F2937;stop-opacity:1" />
      <stop offset="100%" style="stop-color:#111827;stop-opacity:1" />
    </linearGradient>
  </defs>
  
  <!-- Background circle -->
  <circle cx="32" cy="32" r="30" fill="url(#shadowGradient)" stroke="#E5E7EB" stroke-width="2"/>
  
  <!-- Shield outline -->
  <path d="M32 8 L20 16 L20 36 C20 44 26 50 32 52 C38 50 44 44 44 36 L44 16 Z" fill="none" stroke="#6B7280" stroke-width="2"/>
  
  <!-- Inner shield -->
  <path d="M32 12 L24 18 L24 34 C24 40 28 44 32 46 C36 44 40 40 40 34 L40 18 Z" fill="#374151"/>
  
  <!-- Sock pattern -->
  <path d="M28 20 Q32 18 36 20 L36 28 Q36 32 32 34 Q28 32 28 28 Z" fill="#6B7280"/>
  
  <!-- Shadow/stealth effect -->
  <g opacity="0.7">
    <path d="M26 22 Q30 20 34 22" stroke="#9CA3AF" stroke-width="1" fill="none"/>
    <path d="M26 26 Q30 24 34 26" stroke="#9CA3AF" stroke-width="1" fill="none"/>
    <path d="M26 30 Q30 28 34 30" stroke="#9CA3AF" stroke-width="1" fill="none"/>
  </g>
  
  <!-- VPN tunnel visualization -->
  <g opacity="0.8">
    <circle cx="18" cy="32" r="2" fill="#10B981"/>
    <circle cx="46" cy="32" r="2" fill="#10B981"/>
    <path d="M20 32 Q32 24 44 32" stroke="#10B981" stroke-width="2" fill="none" stroke-dasharray="2,2"/>
  </g>
  
  <!-- Lock symbol -->
  <rect x="30" y="36" width="4" height="6" rx="1" fill="#F59E0B"/>
  <path d="M28 36 L28 34 C28 32 30 30 32 30 C34 30 36 32 36 34 L36 36" stroke="#F59E0B" stroke-width="1.5" fill="none"/>
</svg>